<?xml version="1.0" encoding="UTF-8"?>
<svg id="Layer_2" data-name="Layer 2" xmlns="http://www.w3.org/2000/svg" xmlns:xlink="http://www.w3.org/1999/xlink" viewBox="0 0 162 162">
  <defs>
    <style>
      .cls-1 {
        fill: #fff;
      }

      .cls-2 {
        fill: url(#linear-gradient);
      }
    </style>
    <linearGradient id="linear-gradient" x1="14.06" y1="14.06" x2="147.94" y2="147.94" gradientUnits="userSpaceOnUse">
      <stop offset="0" stop-color="#11aed7"/>
      <stop offset="1" stop-color="#4f46e5"/>
    </linearGradient>
  </defs>
  <g id="Layer_1-2" data-name="Layer 1">
    <g>
      <rect class="cls-2" x="0" y="0" width="162" height="162" rx="48" ry="48"/>
      <g>
        <path class="cls-1" d="M108,96v21c0,1.66-1.34,3-3,3h-48c-1.66,0-3-1.34-3-3v-18c0-1.66,1.34-3,3-3h6c1.66,0,3,1.34,3,3v9h30v-12l-12.89-12.89c-1.17-1.17-1.17-3.07,0-4.24l4.25-4.24c1.17-1.17,3.07-1.17,4.24,0l12.89,12.89c2.25,2.25,3.51,5.3,3.51,8.49Z"/>
        <path class="cls-1" d="M108,45v18c0,1.66-1.34,3-3,3h-6c-1.66,0-3-1.34-3-3v-9h-30v12l12.87,12.87c1.17,1.17,1.17,3.07,0,4.24l-4.24,4.24c-1.17,1.17-3.07,1.17-4.24,0l-12.87-12.87c-2.25-2.25-3.51-5.3-3.51-8.48v-21c0-1.66,1.34-3,3-3h48c1.66,0,3,1.34,3,3Z"/>
      </g>
    </g>
  </g>
</svg>